<?xml version="1.0" encoding="UTF-8" standalone="no"?>
<!-- Created with Inkscape (http://www.inkscape.org/) -->
<svg
   xmlns:dc="http://purl.org/dc/elements/1.1/"
   xmlns:cc="http://creativecommons.org/ns#"
   xmlns:rdf="http://www.w3.org/1999/02/22-rdf-syntax-ns#"
   xmlns:svg="http://www.w3.org/2000/svg"
   xmlns="http://www.w3.org/2000/svg"
   xmlns:xlink="http://www.w3.org/1999/xlink"
   xmlns:sodipodi="http://sodipodi.sourceforge.net/DTD/sodipodi-0.dtd"
   xmlns:inkscape="http://www.inkscape.org/namespaces/inkscape"
   width="128"
   height="128"
   id="svg2"
   sodipodi:version="0.32"
   inkscape:version="0.45.1+0.46pre1"
   version="1.0"
   sodipodi:docbase="/home/surban/dev/workspace/tp-fancontrol/debian"
   sodipodi:docname="fanicon.svg"
   inkscape:output_extension="org.inkscape.output.svg.inkscape"
   inkscape:export-filename="/home/michele/source/tp-fancontrol/debian/fanicon-22x22.png"
   inkscape:export-xdpi="15.47"
   inkscape:export-ydpi="15.47">
  <defs
     id="defs4">
    <linearGradient
       id="linearGradient3265">
      <stop
         style="stop-color:#555753;stop-opacity:1;"
         offset="0"
         id="stop3267" />
      <stop
         id="stop3271"
         offset="0.5"
         style="stop-color:#babdb6;stop-opacity:1;" />
      <stop
         style="stop-color:#555753;stop-opacity:1;"
         offset="1"
         id="stop3269" />
    </linearGradient>
    <inkscape:perspective
       sodipodi:type="inkscape:persp3d"
       inkscape:vp_x="-50 : 600 : 1"
       inkscape:vp_y="0 : 1000 : 0"
       inkscape:vp_z="700 : 600 : 1"
       inkscape:persp3d-origin="300 : 400 : 1"
       id="perspective80" />
    <inkscape:perspective
       sodipodi:type="inkscape:persp3d"
       inkscape:vp_x="-50 : 600 : 1"
       inkscape:vp_y="0 : 1000 : 0"
       inkscape:vp_z="700 : 600 : 1"
       inkscape:persp3d-origin="300 : 400 : 1"
       id="perspective56" />
    <linearGradient
       id="linearGradient3439">
      <stop
         id="stop3441"
         offset="0"
         style="stop-color:#babdb6;stop-opacity:1;" />
      <stop
         id="stop3443"
         offset="1"
         style="stop-color:#555753;stop-opacity:1;" />
    </linearGradient>
    <linearGradient
       id="linearGradient3259">
      <stop
         style="stop-color:#1b1f20;stop-opacity:1;"
         offset="0"
         id="stop3261" />
      <stop
         style="stop-color:#5c686c;stop-opacity:1;"
         offset="1"
         id="stop3263" />
    </linearGradient>
    <inkscape:perspective
       sodipodi:type="inkscape:persp3d"
       inkscape:vp_x="-50 : 600 : 1"
       inkscape:vp_y="0 : 1000 : 0"
       inkscape:vp_z="700 : 600 : 1"
       inkscape:persp3d-origin="300 : 400 : 1"
       id="perspective41" />
    <inkscape:perspective
       sodipodi:type="inkscape:persp3d"
       inkscape:vp_x="-50 : 600 : 1"
       inkscape:vp_y="0 : 1000 : 0"
       inkscape:vp_z="700 : 600 : 1"
       inkscape:persp3d-origin="300 : 400 : 1"
       id="perspective35" />
    <inkscape:perspective
       sodipodi:type="inkscape:persp3d"
       inkscape:vp_x="-50 : 600 : 1"
       inkscape:vp_y="0 : 1000 : 0"
       inkscape:vp_z="700 : 600 : 1"
       inkscape:persp3d-origin="300 : 400 : 1"
       id="perspective32" />
    <inkscape:perspective
       id="perspective2477"
       inkscape:persp3d-origin="300 : 400 : 1"
       inkscape:vp_z="700 : 600 : 1"
       inkscape:vp_y="0 : 1000 : 0"
       inkscape:vp_x="-50 : 600 : 1"
       sodipodi:type="inkscape:persp3d" />
    <inkscape:perspective
       id="perspective2527"
       inkscape:persp3d-origin="300 : 400 : 1"
       inkscape:vp_z="700 : 600 : 1"
       inkscape:vp_y="0 : 1000 : 0"
       inkscape:vp_x="-50 : 600 : 1"
       sodipodi:type="inkscape:persp3d" />
    <inkscape:perspective
       id="perspective2483"
       inkscape:persp3d-origin="300 : 400 : 1"
       inkscape:vp_z="700 : 600 : 1"
       inkscape:vp_y="0 : 1000 : 0"
       inkscape:vp_x="-50 : 600 : 1"
       sodipodi:type="inkscape:persp3d" />
    <filter
       inkscape:collect="always"
       id="filter3530">
      <feGaussianBlur
         inkscape:collect="always"
         stdDeviation="3.0000044"
         id="feGaussianBlur3532" />
    </filter>
    <linearGradient
       inkscape:collect="always"
       xlink:href="#linearGradient3439"
       id="linearGradient3574"
       gradientUnits="userSpaceOnUse"
       gradientTransform="matrix(0.7264164,0,0,0.7266404,125.03244,-175.82534)"
       x1="-128"
       y1="264"
       x2="-72"
       y2="416" />
    <linearGradient
       inkscape:collect="always"
       xlink:href="#linearGradient3259"
       id="linearGradient3717"
       gradientUnits="userSpaceOnUse"
       gradientTransform="matrix(0.7366648,0,0,0.7367097,149.47751,37.538804)"
       x1="-143.20749"
       y1="73.822792"
       x2="-159.20749"
       y2="45.822788" />
    <linearGradient
       inkscape:collect="always"
       xlink:href="#linearGradient3259"
       id="linearGradient3719"
       gradientUnits="userSpaceOnUse"
       gradientTransform="matrix(-0.7366648,0,0,-0.7367097,-21.450603,90.461406)"
       x1="-144.8222"
       y1="50.013649"
       x2="-160.8222"
       y2="74.013649" />
    <linearGradient
       inkscape:collect="always"
       xlink:href="#linearGradient3259"
       id="linearGradient3721"
       gradientUnits="userSpaceOnUse"
       gradientTransform="matrix(-0.3683324,-0.6380093,0.6379704,-0.3683548,-1.6333329,3.2122061)"
       x1="-143.92433"
       y1="48.449738"
       x2="-165.38844"
       y2="77.626656" />
    <linearGradient
       inkscape:collect="always"
       xlink:href="#linearGradient3259"
       id="linearGradient3723"
       gradientUnits="userSpaceOnUse"
       gradientTransform="matrix(0.3683324,-0.6380093,0.6379704,0.3683548,83.830717,-23.249095)"
       x1="-152.29388"
       y1="80.890205"
       x2="-134.58107"
       y2="47.569698" />
    <linearGradient
       inkscape:collect="always"
       xlink:href="#linearGradient3259"
       id="linearGradient3725"
       gradientUnits="userSpaceOnUse"
       gradientTransform="matrix(0.3683324,0.6380093,-0.6379704,0.3683548,129.66024,124.788)"
       x1="-137.42586"
       y1="68.812325"
       x2="-169.13867"
       y2="59.740528" />
    <linearGradient
       inkscape:collect="always"
       xlink:href="#linearGradient3259"
       id="linearGradient3727"
       gradientUnits="userSpaceOnUse"
       gradientTransform="matrix(-0.3683324,0.6380093,-0.6379704,-0.3683548,44.19619,151.24931)"
       x1="-140.48193"
       y1="53.730843"
       x2="-160.73064"
       y2="74.659042" />
    <linearGradient
       inkscape:collect="always"
       xlink:href="#linearGradient3439"
       id="linearGradient3729"
       gradientUnits="userSpaceOnUse"
       gradientTransform="matrix(0.7366648,0,0,0.7367097,126.48805,-179.1844)"
       x1="-93.62603"
       y1="308.10504"
       x2="-72"
       y2="348" />
    <filter
       inkscape:collect="always"
       id="filter3745">
      <feGaussianBlur
         inkscape:collect="always"
         stdDeviation="1.4272307"
         id="feGaussianBlur3747" />
    </filter>
    <linearGradient
       inkscape:collect="always"
       xlink:href="#linearGradient3439"
       id="linearGradient3750"
       gradientUnits="userSpaceOnUse"
       gradientTransform="matrix(0.6718776,0,0,0.6719185,120.99373,-157.79689)"
       x1="-93.62603"
       y1="308.10504"
       x2="-72"
       y2="348" />
    <linearGradient
       inkscape:collect="always"
       xlink:href="#linearGradient3259"
       id="linearGradient3753"
       gradientUnits="userSpaceOnUse"
       gradientTransform="matrix(-0.3359388,0.5818985,-0.581863,-0.3359592,45.93917,143.57627)"
       x1="-140.48193"
       y1="53.730843"
       x2="-160.73064"
       y2="74.659042" />
    <linearGradient
       inkscape:collect="always"
       xlink:href="#linearGradient3259"
       id="linearGradient3756"
       gradientUnits="userSpaceOnUse"
       gradientTransform="matrix(0.3359388,0.5818985,-0.581863,0.3359592,123.88694,119.44214)"
       x1="-137.42586"
       y1="68.812325"
       x2="-169.13867"
       y2="59.740528" />
    <linearGradient
       inkscape:collect="always"
       xlink:href="#linearGradient3259"
       id="linearGradient3759"
       gradientUnits="userSpaceOnUse"
       gradientTransform="matrix(0.3359388,-0.5818985,0.581863,0.3359592,82.087971,-15.575577)"
       x1="-152.29388"
       y1="80.890205"
       x2="-134.58107"
       y2="47.569698" />
    <linearGradient
       inkscape:collect="always"
       xlink:href="#linearGradient3259"
       id="linearGradient3762"
       gradientUnits="userSpaceOnUse"
       gradientTransform="matrix(-0.3359388,-0.5818985,0.581863,-0.3359592,4.1402025,8.5585404)"
       x1="-143.92433"
       y1="48.449738"
       x2="-165.38844"
       y2="77.626656" />
    <linearGradient
       inkscape:collect="always"
       xlink:href="#linearGradient3259"
       id="linearGradient3765"
       gradientUnits="userSpaceOnUse"
       gradientTransform="matrix(-0.6718776,0,0,-0.6719185,-13.934204,88.134461)"
       x1="-144.8222"
       y1="50.013649"
       x2="-160.8222"
       y2="74.013649" />
    <linearGradient
       inkscape:collect="always"
       xlink:href="#linearGradient3259"
       id="linearGradient3768"
       gradientUnits="userSpaceOnUse"
       gradientTransform="matrix(0.6718776,0,0,0.6719185,141.96135,39.866227)"
       x1="-143.20749"
       y1="73.822792"
       x2="-159.20749"
       y2="45.822788" />
    <linearGradient
       inkscape:collect="always"
       xlink:href="#linearGradient3259"
       id="linearGradient3223"
       gradientUnits="userSpaceOnUse"
       gradientTransform="matrix(0.6718776,0,0,0.6719185,141.96135,39.866227)"
       x1="-143.20749"
       y1="73.822792"
       x2="-159.20749"
       y2="45.822788" />
    <linearGradient
       inkscape:collect="always"
       xlink:href="#linearGradient3259"
       id="linearGradient3225"
       gradientUnits="userSpaceOnUse"
       gradientTransform="matrix(-0.6718776,0,0,-0.6719185,-13.934204,88.134461)"
       x1="-144.8222"
       y1="50.013649"
       x2="-160.8222"
       y2="74.013649" />
    <linearGradient
       inkscape:collect="always"
       xlink:href="#linearGradient3259"
       id="linearGradient3227"
       gradientUnits="userSpaceOnUse"
       gradientTransform="matrix(-0.3359388,-0.5818985,0.581863,-0.3359592,4.1402025,8.5585404)"
       x1="-143.92433"
       y1="48.449738"
       x2="-165.38844"
       y2="77.626656" />
    <linearGradient
       inkscape:collect="always"
       xlink:href="#linearGradient3259"
       id="linearGradient3229"
       gradientUnits="userSpaceOnUse"
       gradientTransform="matrix(0.3359388,-0.5818985,0.581863,0.3359592,82.087971,-15.575577)"
       x1="-152.29388"
       y1="80.890205"
       x2="-134.58107"
       y2="47.569698" />
    <linearGradient
       inkscape:collect="always"
       xlink:href="#linearGradient3259"
       id="linearGradient3231"
       gradientUnits="userSpaceOnUse"
       gradientTransform="matrix(0.3359388,0.5818985,-0.581863,0.3359592,123.88694,119.44214)"
       x1="-137.42586"
       y1="68.812325"
       x2="-169.13867"
       y2="59.740528" />
    <linearGradient
       inkscape:collect="always"
       xlink:href="#linearGradient3259"
       id="linearGradient3233"
       gradientUnits="userSpaceOnUse"
       gradientTransform="matrix(-0.3359388,0.5818985,-0.581863,-0.3359592,45.93917,143.57627)"
       x1="-140.48193"
       y1="53.730843"
       x2="-160.73064"
       y2="74.659042" />
    <linearGradient
       inkscape:collect="always"
       xlink:href="#linearGradient3439"
       id="linearGradient3235"
       gradientUnits="userSpaceOnUse"
       gradientTransform="matrix(0.6718776,0,0,0.6719185,120.99373,-157.79689)"
       x1="-93.62603"
       y1="308.10504"
       x2="-72"
       y2="348" />
    <linearGradient
       inkscape:collect="always"
       xlink:href="#linearGradient3439"
       id="linearGradient3237"
       gradientUnits="userSpaceOnUse"
       gradientTransform="matrix(0.7264164,0,0,0.7266404,125.03244,-175.82534)"
       x1="-128"
       y1="264"
       x2="-72"
       y2="416" />
    <linearGradient
       inkscape:collect="always"
       xlink:href="#linearGradient3439"
       id="linearGradient3244"
       gradientUnits="userSpaceOnUse"
       gradientTransform="matrix(0.7075197,0,0,0.7075691,123.43171,-169.53089)"
       x1="-128"
       y1="264"
       x2="-72"
       y2="416" />
    <linearGradient
       inkscape:collect="always"
       xlink:href="#linearGradient3259"
       id="linearGradient3258"
       gradientUnits="userSpaceOnUse"
       gradientTransform="matrix(0.6718776,0,0,0.6719185,141.96135,39.866227)"
       x1="-143.20749"
       y1="73.822792"
       x2="-159.20749"
       y2="45.822788" />
    <linearGradient
       inkscape:collect="always"
       xlink:href="#linearGradient3259"
       id="linearGradient3260"
       gradientUnits="userSpaceOnUse"
       gradientTransform="matrix(-0.6718776,0,0,-0.6719185,-13.934204,88.134461)"
       x1="-144.8222"
       y1="50.013649"
       x2="-160.8222"
       y2="74.013649" />
    <linearGradient
       inkscape:collect="always"
       xlink:href="#linearGradient3259"
       id="linearGradient3262"
       gradientUnits="userSpaceOnUse"
       gradientTransform="matrix(-0.3359388,-0.5818985,0.581863,-0.3359592,4.1402025,8.5585404)"
       x1="-143.92433"
       y1="48.449738"
       x2="-165.38844"
       y2="77.626656" />
    <linearGradient
       inkscape:collect="always"
       xlink:href="#linearGradient3259"
       id="linearGradient3264"
       gradientUnits="userSpaceOnUse"
       gradientTransform="matrix(0.3359388,-0.5818985,0.581863,0.3359592,82.087971,-15.575577)"
       x1="-152.29388"
       y1="80.890205"
       x2="-134.58107"
       y2="47.569698" />
    <linearGradient
       inkscape:collect="always"
       xlink:href="#linearGradient3259"
       id="linearGradient3266"
       gradientUnits="userSpaceOnUse"
       gradientTransform="matrix(0.3359388,0.5818985,-0.581863,0.3359592,123.88694,119.44214)"
       x1="-137.42586"
       y1="68.812325"
       x2="-169.13867"
       y2="59.740528" />
    <linearGradient
       inkscape:collect="always"
       xlink:href="#linearGradient3259"
       id="linearGradient3268"
       gradientUnits="userSpaceOnUse"
       gradientTransform="matrix(-0.3359388,0.5818985,-0.581863,-0.3359592,45.93917,143.57627)"
       x1="-140.48193"
       y1="53.730843"
       x2="-160.73064"
       y2="74.659042" />
    <linearGradient
       inkscape:collect="always"
       xlink:href="#linearGradient3439"
       id="linearGradient3270"
       gradientUnits="userSpaceOnUse"
       gradientTransform="matrix(0.6718776,0,0,0.6719185,120.99373,-157.79689)"
       x1="-93.62603"
       y1="308.10504"
       x2="-72"
       y2="348" />
    <linearGradient
       inkscape:collect="always"
       xlink:href="#linearGradient3265"
       id="linearGradient2461"
       gradientUnits="userSpaceOnUse"
       gradientTransform="matrix(0.6543996,0,0,0.6542835,119.49806,-151.97561)"
       x1="-106.99423"
       y1="301.33124"
       x2="-68.400871"
       y2="354.68527" />
    <linearGradient
       inkscape:collect="always"
       xlink:href="#linearGradient3259"
       id="linearGradient2464"
       gradientUnits="userSpaceOnUse"
       gradientTransform="matrix(-0.3271998,0.5666261,-0.5667266,-0.3271417,46.395944,141.48777)"
       x1="-140.48193"
       y1="53.730843"
       x2="-160.73064"
       y2="74.659042" />
    <linearGradient
       inkscape:collect="always"
       xlink:href="#linearGradient3259"
       id="linearGradient2467"
       gradientUnits="userSpaceOnUse"
       gradientTransform="matrix(0.3271998,0.5666261,-0.5667266,0.3271417,122.31601,117.98706)"
       x1="-137.42586"
       y1="68.812325"
       x2="-169.13867"
       y2="59.740528" />
    <linearGradient
       inkscape:collect="always"
       xlink:href="#linearGradient3259"
       id="linearGradient2470"
       gradientUnits="userSpaceOnUse"
       gradientTransform="matrix(0.3271998,-0.5666261,0.5667266,0.3271417,81.604384,-13.487009)"
       x1="-152.29388"
       y1="80.890205"
       x2="-134.58107"
       y2="47.569698" />
    <linearGradient
       inkscape:collect="always"
       xlink:href="#linearGradient3259"
       id="linearGradient2473"
       gradientUnits="userSpaceOnUse"
       gradientTransform="matrix(-0.3271998,-0.5666261,0.5667266,-0.3271417,5.6843179,10.013689)"
       x1="-143.92433"
       y1="48.449738"
       x2="-165.38844"
       y2="77.626656" />
    <linearGradient
       inkscape:collect="always"
       xlink:href="#linearGradient3259"
       id="linearGradient2476"
       gradientUnits="userSpaceOnUse"
       gradientTransform="matrix(-0.6543996,0,0,-0.6542835,-11.919908,87.501076)"
       x1="-144.8222"
       y1="50.013649"
       x2="-160.8222"
       y2="74.013649" />
    <linearGradient
       inkscape:collect="always"
       xlink:href="#linearGradient3259"
       id="linearGradient2479"
       gradientUnits="userSpaceOnUse"
       gradientTransform="matrix(0.6543996,0,0,0.6542835,139.92024,40.49968)"
       x1="-143.20749"
       y1="73.822792"
       x2="-159.20749"
       y2="45.822788" />
    <linearGradient
       inkscape:collect="always"
       xlink:href="#linearGradient3439"
       id="linearGradient2490"
       gradientUnits="userSpaceOnUse"
       gradientTransform="matrix(0.6543996,0,0,0.6542835,119.49806,-151.97561)"
       x1="-78.356209"
       y1="315.7413"
       x2="-64.728661"
       y2="337.45468" />
    <linearGradient
       inkscape:collect="always"
       xlink:href="#linearGradient3439"
       id="linearGradient2492"
       gradientUnits="userSpaceOnUse"
       gradientTransform="matrix(0.6543996,0,0,0.6542835,119.49806,-151.97561)"
       x1="-98.715973"
       y1="331.37747"
       x2="-99.994675"
       y2="356.36353" />
  </defs>
  <sodipodi:namedview
     id="base"
     pagecolor="#ffffff"
     bordercolor="#666666"
     borderopacity="1.0"
     inkscape:pageopacity="0.0"
     inkscape:pageshadow="2"
     inkscape:zoom="2.9720583"
     inkscape:cx="37.216231"
     inkscape:cy="48.728763"
     inkscape:document-units="px"
     inkscape:current-layer="layer1"
     width="128px"
     height="128px"
     inkscape:window-width="1400"
     inkscape:window-height="974"
     inkscape:window-x="0"
     inkscape:window-y="49"
     showgrid="true"
     objecttolerance="10000"
     gridtolerance="15"
     guidetolerance="10000"
     inkscape:snap-global="true"
     showguides="true"
     inkscape:guide-bbox="true"
     inkscape:snap-center="true"
     inkscape:snap-bbox="true"
     inkscape:snap-nodes="false"
     showborder="false">
    <inkscape:grid
       type="xygrid"
       id="grid2420"
       visible="true"
       enabled="true"
       spacingx="0.5px"
       spacingy="0.5px" />
  </sodipodi:namedview>
  <metadata
     id="metadata7">
    <rdf:RDF>
      <cc:Work
         rdf:about="">
        <dc:format>image/svg+xml</dc:format>
        <dc:type
           rdf:resource="http://purl.org/dc/dcmitype/StillImage" />
      </cc:Work>
    </rdf:RDF>
  </metadata>
  <g
     inkscape:label="Ebene 1"
     inkscape:groupmode="layer"
     id="layer1">
    <path
       sodipodi:nodetypes="ccccccccc"
       id="path3524"
       d="M -145.99238,256.04602 L -22.007605,256.04602 C -16,256 -10,262 -10.006531,268.04709 L -10.006531,392.05819 C -10,398 -16,404 -22.007605,404.05927 L -145.99238,404.05927 C -152,404 -158,398 -157.99345,392.05819 L -157.99345,268.04709 C -158,262 -152,256 -145.99238,256.04602 z"
       style="fill:#2e3436;fill-opacity:1;stroke:none;stroke-width:2;stroke-linecap:square;stroke-linejoin:miter;stroke-miterlimit:4;stroke-dasharray:none;stroke-opacity:1;filter:url(#filter3530)"
       transform="matrix(0.7369586,0,0,0.7368278,125.90458,-179.19184)" />
    <path
       style="fill:#d3d7cf;fill-opacity:1;stroke:#2e3436;stroke-width:1.94774055;stroke-linecap:square;stroke-linejoin:miter;stroke-miterlimit:4;stroke-dasharray:none;stroke-opacity:1"
       d="M 18.736531,9.9740616 L 109.26357,9.9740616 C 113.65001,9.9404663 118.03089,14.320568 118.02613,18.735046 L 118.02613,109.26524 C 118.03089,113.60286 113.65001,117.98296 109.26357,118.02624 L 18.736531,118.02624 C 14.350089,117.98296 9.9692096,113.60286 9.9739921,109.26524 L 9.9739921,18.735046 C 9.9692096,14.320568 14.350089,9.9404663 18.736531,9.9740616 z"
       id="rect3467"
       sodipodi:nodetypes="ccccccccc" />
    <path
       sodipodi:nodetypes="csssc"
       id="path3461"
       d="M 113.36943,64.000145 C 113.36943,91.412282 91.417085,113.36076 64.00005,113.36076 C 36.583026,113.36076 14.630666,91.412282 14.630666,64.000145 C 14.630666,36.587973 36.583026,14.639523 64.00005,14.639523 C 91.417085,14.639523 113.36943,36.587973 113.36943,64.000145 z"
       style="fill:#ffffff;fill-opacity:1;stroke:#2e3436;stroke-width:0.97387028;stroke-linecap:square;stroke-linejoin:miter;stroke-miterlimit:4;stroke-dasharray:none;stroke-opacity:1" />
    <path
       style="fill:#2e3436;fill-opacity:1;fill-rule:evenodd;stroke:none;stroke-width:2.07378387;stroke-linecap:butt;stroke-linejoin:miter;stroke-miterlimit:4;stroke-dasharray:none;stroke-opacity:0.43727597;filter:url(#filter3745)"
       d="M 63.71875,16.0625 C 62.141433,16.069768 60.739069,16.135461 59.71875,16.28125 C 55.569566,16.874089 46.844175,18.36539 45.71875,20.34375 C 44.553391,22.392289 50.622018,39.771029 52.5625,46.8125 C 50.40423,48.2492 48.538049,50.089286 47.0625,52.21875 C 42.774857,44.185674 31.314339,30.749702 29.625,30.96875 C 27.792975,31.206294 22.066894,40.048721 20.53125,43.875 C 18.970044,47.764937 15.912014,56.067367 17.0625,58.03125 C 18.255501,60.067711 36.391299,63.505562 43.4375,65.34375 C 43.606479,68.007722 44.301633,70.525536 45.375,72.8125 C 36.281674,72.502656 18.874338,75.675926 18.21875,77.25 C 17.508444,78.955455 22.298116,88.350614 24.84375,91.59375 C 27.431727,94.890846 33.099089,101.70197 35.375,101.6875 C 37.733787,101.67251 49.755458,87.690048 54.875,82.5 C 57.148772,83.618626 59.649585,84.347931 62.3125,84.5625 C 57.499219,92.289806 51.559116,108.92732 52.59375,110.28125 C 53.715469,111.74916 64.231222,112.3019 68.3125,111.71875 C 72.461681,111.12591 81.187073,109.63461 82.3125,107.65625 C 83.477857,105.60772 77.409233,88.228972 75.46875,81.1875 C 77.627733,79.750324 79.492973,77.911614 80.96875,75.78125 C 85.25639,83.814323 96.685659,97.250297 98.375,97.03125 C 100.20703,96.793704 105.96435,87.951286 107.5,84.125 C 109.0612,80.235063 112.11924,71.932634 110.96875,69.96875 C 109.77575,67.932289 91.639954,64.494438 84.59375,62.65625 C 84.424771,59.992275 83.729616,57.474465 82.65625,55.1875 C 91.74958,55.497345 109.15691,52.324074 109.8125,50.75 C 110.52281,49.044546 105.73313,39.649386 103.1875,36.40625 C 100.59952,33.109158 94.932161,26.298031 92.65625,26.3125 C 90.299004,26.327484 78.28156,40.30174 73.15625,45.5 C 70.883719,44.382712 68.379824,43.65192 65.71875,43.4375 C 70.532029,35.71019 76.472131,19.072683 75.4375,17.71875 C 74.596212,16.617823 68.450702,16.040696 63.71875,16.0625 z"
       id="path3614"
       transform="matrix(0.9081588,0,0,0.9079423,5.8658117,5.8920345)" />
    <path
       sodipodi:nodetypes="czzzcc"
       id="path3269"
       d="M 48.294573,71.85178 C 40.505582,71.329282 23.92964,74.326561 23.326395,75.774615 C 22.69541,77.289256 26.941101,85.623171 29.202458,88.503451 C 31.501429,91.431651 36.535006,97.473394 38.55676,97.460542 C 40.734203,97.446705 52.251217,83.95268 56.449125,79.837264 L 48.294573,71.85178 z"
       style="fill:url(#linearGradient2479);fill-opacity:1;fill-rule:evenodd;stroke:#090a0a;stroke-width:1;stroke-linecap:butt;stroke-linejoin:miter;stroke-miterlimit:4;stroke-dasharray:none;stroke-opacity:1"
       inkscape:transform-center-x="36.894916"
       inkscape:transform-center-y="31.523914" />
    <path
       inkscape:transform-center-y="-31.523915"
       inkscape:transform-center-x="-36.894916"
       style="fill:url(#linearGradient2476);fill-opacity:1;fill-rule:evenodd;stroke:#090a0a;stroke-width:1;stroke-linecap:butt;stroke-linejoin:miter;stroke-miterlimit:4;stroke-dasharray:none;stroke-opacity:1"
       d="M 79.705755,56.148976 C 87.494745,56.671473 104.07068,53.674196 104.67393,52.226141 C 105.30492,50.711502 101.05923,42.377586 98.797868,39.497305 C 96.498895,36.569105 91.465322,30.527366 89.443567,30.540217 C 87.266124,30.554055 75.74911,44.048075 71.551203,48.163492 L 79.705755,56.148976 z"
       id="path3358"
       sodipodi:nodetypes="czzzcc" />
    <path
       sodipodi:nodetypes="czzzcc"
       id="path3362"
       d="M 78.65368,73.673705 C 82.095599,80.679222 92.979751,93.533223 94.535647,93.331527 C 96.163089,93.12056 101.25891,85.277376 102.62307,81.879191 C 104.00993,78.424476 106.72637,71.045179 105.70436,69.301023 C 104.60365,67.422555 87.156906,64.197311 81.493264,62.620167 L 78.65368,73.673705 z"
       style="fill:url(#linearGradient2473);fill-opacity:1;fill-rule:evenodd;stroke:#090a0a;stroke-width:1;stroke-linecap:butt;stroke-linejoin:miter;stroke-miterlimit:4;stroke-dasharray:none;stroke-opacity:1"
       inkscape:transform-center-x="-43.232321"
       inkscape:transform-center-y="21.361752" />
    <path
       inkscape:transform-center-y="43.590775"
       inkscape:transform-center-x="-4.6965047"
       style="fill:url(#linearGradient2470);fill-opacity:1;fill-rule:evenodd;stroke:#090a0a;stroke-width:1;stroke-linecap:butt;stroke-linejoin:miter;stroke-miterlimit:4;stroke-dasharray:none;stroke-opacity:1"
       d="M 62.948086,81.525105 C 58.601014,88.008126 52.909223,103.85941 53.861879,105.10576 C 54.858332,106.40943 64.199847,106.90017 67.825359,106.38226 C 71.511192,105.85575 79.261206,104.5182 80.260953,102.76119 C 81.33769,100.86888 75.407956,84.149614 73.942223,78.457053 L 62.948086,81.525105 z"
       id="path3366"
       sodipodi:nodetypes="czzzcc" />
    <path
       sodipodi:nodetypes="czzzcc"
       id="path3370"
       d="M 49.346652,54.327053 C 45.904732,47.321534 35.020575,34.467534 33.46468,34.669229 C 31.837241,34.880196 26.741418,42.723387 25.377263,46.121565 C 23.990401,49.57628 21.273962,56.955578 22.29597,58.699733 C 23.396677,60.578201 40.843423,63.803446 46.507061,65.380589 L 49.346652,54.327053 z"
       style="fill:url(#linearGradient2467);fill-opacity:1;fill-rule:evenodd;stroke:#090a0a;stroke-width:1;stroke-linecap:butt;stroke-linejoin:miter;stroke-miterlimit:4;stroke-dasharray:none;stroke-opacity:1"
       inkscape:transform-center-x="43.232316"
       inkscape:transform-center-y="-21.361754" />
    <path
       inkscape:transform-center-y="-43.590775"
       inkscape:transform-center-x="4.6965029"
       style="fill:url(#linearGradient2464);fill-opacity:1;fill-rule:evenodd;stroke:#090a0a;stroke-width:1;stroke-linecap:butt;stroke-linejoin:miter;stroke-miterlimit:4;stroke-dasharray:none;stroke-opacity:1"
       d="M 65.052242,46.475657 C 69.399315,39.992638 75.091104,24.141351 74.138451,22.894993 C 73.141996,21.591326 63.80048,21.100588 60.174969,21.618499 C 56.489135,22.145007 48.73912,23.482566 47.739374,25.239579 C 46.662639,27.131878 52.592376,43.851143 54.058106,49.543704 L 65.052242,46.475657 z"
       id="path3374"
       sodipodi:nodetypes="czzzcc" />
    <path
       style="fill:url(#linearGradient2461);fill-opacity:1;stroke:#090a0a;stroke-width:1;stroke-linecap:square;stroke-linejoin:miter;stroke-miterlimit:4;stroke-dasharray:none;stroke-opacity:1"
       d="M 82.323354,64.000378 C 82.323354,74.17425 74.175853,82.320316 64.000164,82.320316 C 53.824479,82.320316 45.676975,74.17425 45.676975,64.000378 C 45.676975,53.826493 53.824479,45.680441 64.000164,45.680441 C 74.175853,45.680441 82.323354,53.826493 82.323354,64.000378 z"
       id="path3325"
       sodipodi:nodetypes="csssc" />
    <path
       style="fill:url(#linearGradient3244);fill-opacity:1;stroke:#2e3436;stroke-width:1;stroke-linecap:square;stroke-linejoin:miter;stroke-miterlimit:4;stroke-dasharray:none;stroke-opacity:1"
       d="M 21.327774,13.044023 C 16.747452,13.044023 13.058641,16.733099 13.058641,21.313741 L 13.058641,106.68636 C 13.058641,111.26701 16.74746,114.95609 21.327774,114.95606 L 106.67233,114.95606 C 111.25266,114.95606 114.94147,111.26703 114.94147,106.68636 L 114.94147,21.313741 C 114.94147,16.733091 111.25266,13.044023 106.67233,13.044023 L 21.327774,13.044023 z M 64.000055,15.321514 C 91.035663,15.321521 112.68625,36.973602 112.68625,64.011101 C 112.68625,91.048575 91.035663,112.7007 64.000055,112.7007 C 36.964456,112.70071 15.313856,91.048575 15.313856,64.011101 C 15.313856,36.973602 36.964456,15.321514 64.000055,15.321514 z"
       id="rect3469" />
    <path
       d="M 23.132116,108.40079 A 2.3552701,2.3552701 0 1 1 18.421576,108.40079 A 2.3552701,2.3552701 0 1 1 23.132116,108.40079 z"
       sodipodi:ry="2.3552701"
       sodipodi:rx="2.3552701"
       sodipodi:cy="108.40079"
       sodipodi:cx="20.776846"
       id="path3737"
       style="fill:#ffffff;fill-opacity:1;stroke:#2e3436;stroke-width:0.62820035;stroke-linecap:square;stroke-linejoin:miter;stroke-miterlimit:4;stroke-dasharray:none;stroke-opacity:1"
       sodipodi:type="arc"
       transform="matrix(1.8243747,0,0,1.82394,-16.773207,-176.07479)" />
    <path
       transform="matrix(1.8243747,0,0,1.82394,68.450604,-176.07479)"
       sodipodi:type="arc"
       style="fill:#ffffff;fill-opacity:1;stroke:#2e3436;stroke-width:0.62820035;stroke-linecap:square;stroke-linejoin:miter;stroke-miterlimit:4;stroke-dasharray:none;stroke-opacity:1"
       id="path3739"
       sodipodi:cx="20.776846"
       sodipodi:cy="108.40079"
       sodipodi:rx="2.3552701"
       sodipodi:ry="2.3552701"
       d="M 23.132116,108.40079 A 2.3552701,2.3552701 0 1 1 18.421576,108.40079 A 2.3552701,2.3552701 0 1 1 23.132116,108.40079 z" />
    <path
       transform="matrix(1.8243747,0,0,1.82394,68.450604,-90.8713)"
       sodipodi:type="arc"
       style="fill:#ffffff;fill-opacity:1;stroke:#2e3436;stroke-width:0.62820035;stroke-linecap:square;stroke-linejoin:miter;stroke-miterlimit:4;stroke-dasharray:none;stroke-opacity:1"
       id="path3741"
       sodipodi:cx="20.776846"
       sodipodi:cy="108.40079"
       sodipodi:rx="2.3552701"
       sodipodi:ry="2.3552701"
       d="M 23.132116,108.40079 A 2.3552701,2.3552701 0 1 1 18.421576,108.40079 A 2.3552701,2.3552701 0 1 1 23.132116,108.40079 z" />
    <path
       d="M 23.132116,108.40079 A 2.3552701,2.3552701 0 1 1 18.421576,108.40079 A 2.3552701,2.3552701 0 1 1 23.132116,108.40079 z"
       sodipodi:ry="2.3552701"
       sodipodi:rx="2.3552701"
       sodipodi:cy="108.40079"
       sodipodi:cx="20.776846"
       id="path3743"
       style="fill:#ffffff;fill-opacity:1;stroke:#2e3436;stroke-width:0.62820035;stroke-linecap:square;stroke-linejoin:miter;stroke-miterlimit:4;stroke-dasharray:none;stroke-opacity:1"
       sodipodi:type="arc"
       transform="matrix(1.8243747,0,0,1.82394,-16.773206,-90.8713)" />
  </g>
</svg>
